ModelForces
version=1
nRows=5
nColumns=67
inDegrees=no

This file contains the forces exerted on a model during a simulation.

A force is a generalized force, meaning that it can be either a force (N) or a torque (Nm).

Units are S.I. units (second, meters, Newtons, ...)
Angles are in degrees.

endheader
time	hamstrings_r	bifemsh_r	glut_max_r	iliopsoas_r	rect_fem_r	vasti_r	gastroc_r	soleus_r	tib_ant_r	hamstrings_l	bifemsh_l	glut_max_l	iliopsoas_l	rect_fem_l	vasti_l	gastroc_l	soleus_l	tib_ant_l	foot_r.ground.force.X	foot_r.ground.force.Y	foot_r.ground.force.Z	foot_r.ground.torque.X	foot_r.ground.torque.Y	foot_r.ground.torque.Z	foot_r.calcn_r.force.X	foot_r.calcn_r.force.Y	foot_r.calcn_r.force.Z	foot_r.calcn_r.torque.X	foot_r.calcn_r.torque.Y	foot_r.calcn_r.torque.Z	foot_r.toes_r.force.X	foot_r.toes_r.force.Y	foot_r.toes_r.force.Z	foot_r.toes_r.torque.X	foot_r.toes_r.torque.Y	foot_r.toes_r.torque.Z	foot_l.ground.force.X	foot_l.ground.force.Y	foot_l.ground.force.Z	foot_l.ground.torque.X	foot_l.ground.torque.Y	foot_l.ground.torque.Z	foot_l.calcn_l.force.X	foot_l.calcn_l.force.Y	foot_l.calcn_l.force.Z	foot_l.calcn_l.torque.X	foot_l.calcn_l.torque.Y	foot_l.calcn_l.torque.Z	foot_l.toes_l.force.X	foot_l.toes_l.force.Y	foot_l.toes_l.force.Z	foot_l.toes_l.torque.X	foot_l.toes_l.torque.Y	foot_l.toes_l.torque.Z	HipLimit_r	PotentialEnergy	HipLimit_l	PotentialEnergy	KneeLimit_r	PotentialEnergy	KneeLimit_l	PotentialEnergy	AnkleLimit_r	PotentialEnergy	AnkleLimit_l	PotentialEnergy
      1.68389503	     46.44238105	    376.40180245	     41.44651101	    103.24381224	   1525.95048317	    367.22651659	    506.11221255	    926.72303790	   1380.26772306	   2820.13367486	    425.93255141	     60.12385210	   1269.97767572	   1475.74562402	     86.00242503	   4016.41057571	    264.62799904	   1718.35045556	     61.84842383	    -60.13733092	      0.00000000	      5.49775479	      5.65418291	      6.00436136	    -61.84842383	     60.13733092	      0.00000000	      0.00000000	      0.00000000	      1.84867253	      0.00000000	      0.00000000	      0.00000000	      0.00000000	      0.00000000	      0.00000000	   -227.43509370	   -622.42048384	      0.00000000	    -57.57389476	     21.03774617	    -15.74378615	      0.00000000	      0.00000000	      0.00000000	      0.00000000	      0.00000000	      0.00000000	    227.43509370	    622.42048384	      0.00000000	      0.00000000	      0.00000000	     24.18287586	      0.00000000	      0.00000000	      0.00000000	      0.00000000	    -14.35592484	      0.18365441	    -53.43271800	      1.19171296	     -7.30820212	      0.08006281	      0.00000000	      0.00000000
      1.68448537	     46.46966515	    377.31106038	     41.46122038	    103.11925115	   1524.58634958	    370.12092221	    505.99743027	    929.01889435	   1380.96423356	   2822.02562023	    425.08414713	     60.16518485	   1276.28618837	   1474.22451966	     86.05035267	   4015.79391811	    264.59242534	   1718.67294569	     61.83940043	    -60.11383361	      0.00000000	      5.49560667	      5.65335799	      5.99349712	    -61.83940043	     60.11383361	      0.00000000	      0.00000000	      0.00000000	      1.84818120	      0.00000000	      0.00000000	      0.00000000	      0.00000000	      0.00000000	      0.00000000	   -227.55034358	   -622.03786415	      0.00000000	    -57.53850243	     21.04840678	    -15.72968725	      0.00000000	      0.00000000	      0.00000000	      0.00000000	      0.00000000	      0.00000000	    227.55034358	    622.03786415	      0.00000000	      0.00000000	      0.00000000	     24.18263488	      0.00000000	      0.00000000	      0.00000000	      0.00000000	    -14.39941071	      0.18428991	    -53.28322237	      1.18718156	     -7.25622582	      0.07947369	      0.00000000	      0.00000000
      1.68507572	     46.49699968	    378.15219641	     41.47594894	    102.99441816	   1523.20682239	    372.75810224	    505.87610157	    931.22570827	   1381.69762959	   2823.92973995	    424.27342490	     60.20547000	   1281.98594129	   1472.71581676	     86.10160815	   4015.17472634	    264.55664906	   1718.99339478	     61.82939798	    -60.08911430	      0.00000000	      5.49334683	      5.65244356	      5.98249641	    -61.82939798	     60.08911430	      0.00000000	      0.00000000	      0.00000000	      1.84765203	      0.00000000	      0.00000000	      0.00000000	      0.00000000	      0.00000000	      0.00000000	   -227.65871212	   -621.65900542	      0.00000000	    -57.50345800	     21.05843087	    -15.71565355	      0.00000000	      0.00000000	      0.00000000	      0.00000000	      0.00000000	      0.00000000	    227.65871212	    621.65900542	      0.00000000	      0.00000000	      0.00000000	     24.18258978	      0.00000000	      0.00000000	      0.00000000	      0.00000000	    -14.44392377	      0.18494518	    -53.13303379	      1.18262477	     -7.20338532	      0.07886400	      0.00000000	      0.00000000
      1.68566607	     46.52437489	    378.93065968	     41.49076756	    102.86921525	   1521.81262755	    375.15802579	    505.74917027	    933.34818548	   1382.46358276	   2825.84601074	    423.49830132	     60.24514721	   1287.13388352	   1471.21870847	     86.15508759	   4014.55241734	    264.52041271	   1719.31287896	     61.81887700	    -60.06359086	      0.00000000	      5.49101348	      5.65148173	      5.97140174	    -61.81887700	     60.06359086	      0.00000000	      0.00000000	      0.00000000	      1.84709787	      0.00000000	      0.00000000	      0.00000000	      0.00000000	      0.00000000	      0.00000000	   -227.75976536	   -621.28455974	      0.00000000	    -57.46882178	     21.06777830	    -15.70170085	      0.00000000	      0.00000000	      0.00000000	      0.00000000	      0.00000000	      0.00000000	    227.75976536	    621.28455974	      0.00000000	      0.00000000	      0.00000000	     24.18276855	      0.00000000	      0.00000000	      0.00000000	      0.00000000	    -14.48925176	      0.18561983	    -52.98248720	      1.17804464	     -7.15034566	      0.07823605	      0.00000000	      0.00000000
      1.68625642	     46.55177906	    379.65135479	     41.50573641	    102.74354425	   1520.40494414	    377.34039561	    505.61790242	    935.39199474	   1383.25573223	   2827.77432516	    422.75688592	     60.28426476	   1291.78124242	   1469.73217472	     86.20957617	   4013.92634134	    264.48342239	   1719.63262281	     61.80832214	    -60.03773913	      0.00000000	      5.48865011	      5.65051681	      5.96026142	    -61.80832214	     60.03773913	      0.00000000	      0.00000000	      0.00000000	      1.84653332	      0.00000000	      0.00000000	      0.00000000	      0.00000000	      0.00000000	      0.00000000	   -227.85348849	   -620.91460850	      0.00000000	    -57.43460129	     21.07644769	    -15.68783313	      0.00000000	      0.00000000	      0.00000000	      0.00000000	      0.00000000	      0.00000000	    227.85348849	    620.91460850	      0.00000000	      0.00000000	      0.00000000	     24.18317476	      0.00000000	      0.00000000	      0.00000000	      0.00000000	    -14.53517672	      0.18631295	    -52.83190073	      1.17344425	     -7.09773443	      0.07759318	      0.00000000	      0.00000000
